<svg width="20" height="19" viewBox="0 0 20 19" fill="none" xmlns="http://www.w3.org/2000/svg">
<path d="M19.8138 0.173702C19.902 0.256659 19.9623 0.362122 19.9872 0.476991C20.0121 0.59186 20.0005 0.711072 19.9539 0.819819L12.5437 18.2255C12.4784 18.3788 12.3694 18.5122 12.2286 18.611C12.0878 18.7098 11.9207 18.7702 11.7458 18.7855C11.5708 18.8009 11.3947 18.7706 11.2369 18.6979C11.0791 18.6253 10.9457 18.5132 10.8513 18.3739L6.80433 12.3973L0.443482 8.59477C0.294894 8.50621 0.175233 8.3808 0.0977034 8.23238C0.020174 8.08396 -0.0122101 7.9183 0.00412456 7.75368C0.0204592 7.58907 0.0848776 7.43189 0.190271 7.29949C0.295665 7.1671 0.437937 7.06463 0.601389 7.0034L19.1262 0.0432817C19.2419 -0.000496 19.3688 -0.01136 19.491 0.0120392C19.6133 0.0354385 19.7255 0.0920698 19.8138 0.174898V0.173702ZM8.07523 12.0479L11.5912 17.2384L17.6184 3.08123L8.07523 12.0479ZM16.7181 2.2353L1.65071 7.8984L19.8138 0.173702L16.7194 2.2353H16.7181Z" fill="#0063AE"/>
</svg>
