<svg width="56" height="43" viewBox="0 0 56 43" fill="none" xmlns="http://www.w3.org/2000/svg">
<path d="M20.2222 0C17.3153 0 14.9042 1.72168 14.2139 4.04805C14.1361 4.04805 14.0778 4.03125 14 4.03125C10.5681 4.03125 7.77778 6.4416 7.77778 9.40625C7.77778 9.80937 7.83611 10.2041 7.94306 10.582C5.10417 11.5898 3.11111 13.9918 3.11111 16.7969C3.11111 17.8551 3.42222 18.8377 3.91806 19.7279C1.58472 20.8869 0 23.0369 0 25.5312C0 28.3279 1.98333 30.7299 4.80278 31.7377C4.71528 32.124 4.66667 32.5187 4.66667 32.9219C4.66667 36.2645 7.79722 38.9688 11.6667 38.9688C12.0653 38.9688 12.4542 38.9268 12.8333 38.868C13.7667 41.2615 16.3528 43 19.4444 43C23.3139 43 26.4444 40.2957 26.4444 36.9531V5.375C26.4444 2.41035 23.6542 0 20.2222 0ZM56 25.5312C56 23.0369 54.4153 20.8869 52.0819 19.7279C52.5875 18.8377 52.8889 17.8551 52.8889 16.7969C52.8889 13.9918 50.8958 11.5898 48.0569 10.582C48.1542 10.2041 48.2222 9.80937 48.2222 9.40625C48.2222 6.4416 45.4319 4.03125 42 4.03125C41.9222 4.03125 41.8542 4.04805 41.7861 4.04805C41.0958 1.72168 38.6847 0 35.7778 0C32.3458 0 29.5556 2.40195 29.5556 5.375V36.9531C29.5556 40.2957 32.6861 43 36.5556 43C39.6472 43 42.2333 41.2615 43.1667 38.868C43.5458 38.9268 43.9347 38.9688 44.3333 38.9688C48.2028 38.9688 51.3333 36.2645 51.3333 32.9219C51.3333 32.5187 51.2847 32.124 51.1972 31.7377C54.0167 30.7299 56 28.3279 56 25.5312Z" fill="#3CAAFE"/>
</svg>
